<?xml version="1.0" standalone="no"?>
<!DOCTYPE svg PUBLIC "-//W3C//DTD SVG 20010904//EN"
 "http://www.w3.org/TR/2001/REC-SVG-20010904/DTD/svg10.dtd">
<svg version="1.0" xmlns="http://www.w3.org/2000/svg"
 width="204.000000pt" height="195.000000pt" viewBox="0 0 204.000000 195.000000"
 preserveAspectRatio="xMidYMid meet">

<g transform="translate(0.000000,195.000000) scale(0.100000,-0.100000)"
fill="#000000" stroke="none">
<path d="M1225 1659 c-55 -44 -133 -96 -174 -117 -63 -31 -82 -36 -136 -34
-55 1 -65 -2 -86 -24 -23 -25 -24 -31 -30 -252 -7 -235 -21 -350 -60 -465 -24
-72 -35 -91 -146 -250 -61 -88 -84 -130 -89 -163 -9 -62 3 -124 31 -159 22
-26 31 -30 92 -33 83 -5 172 16 268 64 80 39 480 368 505 415 19 36 138 136
226 189 144 88 268 205 319 302 42 81 33 110 -60 194 -41 37 -91 78 -112 92
-21 13 -60 46 -88 73 -30 29 -80 62 -125 83 -50 23 -99 56 -147 100 -39 36
-75 66 -80 65 -4 0 -53 -37 -108 -80z m156 -25 c18 -20 55 -51 81 -68 52 -36
52 -46 2 -46 -36 0 -54 16 -27 23 11 3 8 5 -9 6 -18 1 -28 7 -28 16 0 18 -17
20 -22 3 -3 -9 -12 -8 -31 5 -30 19 -37 21 -37 8 0 -5 11 -12 24 -15 13 -3 38
-19 56 -36 30 -28 32 -34 27 -75 -4 -25 -3 -45 2 -45 5 0 11 19 14 41 3 23 9
45 14 50 14 14 117 21 133 9 13 -10 13 -12 1 -17 -42 -17 -82 -76 -137 -201
-32 -73 -62 -136 -67 -139 -6 -3 -6 14 -2 44 8 64 -10 167 -40 218 -13 22 -48
64 -79 93 -31 29 -56 55 -56 57 0 6 132 105 140 105 3 0 22 -16 41 -36z m-226
-120 c-83 -64 -225 -133 -225 -110 0 22 22 39 78 60 37 15 81 35 97 45 17 11
39 20 50 20 l20 0 -20 -15z m134 -90 c29 -44 57 -111 49 -119 -9 -9 -170 -25
-253 -25 -92 0 -93 0 -99 -26 -8 -31 -21 -23 -31 18 -6 23 -3 29 19 39 14 7
26 16 26 20 0 9 230 139 247 139 6 0 25 -21 42 -46z m394 -2 c32 -33 49 -60
53 -83 6 -33 1 -40 -79 -121 -46 -47 -118 -130 -160 -185 -77 -102 -127 -149
-232 -220 -110 -74 -150 -117 -199 -213 -49 -93 -69 -113 -114 -109 -55 4 -69
-3 -144 -75 -79 -76 -148 -113 -221 -119 -31 -2 -32 -1 -31 36 1 29 15 59 59
123 l57 84 55 0 c78 0 131 16 186 56 49 35 59 53 123 203 24 58 108 137 205
195 129 77 164 120 232 278 63 147 99 193 152 197 6 1 32 -21 58 -47z m-800
-24 c-3 -46 1 -80 16 -128 11 -35 19 -65 18 -66 -1 -1 -17 -5 -34 -9 l-33 -7
0 117 c0 108 9 155 29 155 5 0 7 -28 4 -62z m947 -148 c0 -107 -82 -211 -317
-403 -98 -80 -147 -113 -189 -127 -132 -46 -179 -92 -221 -216 -14 -44 -30
-84 -35 -91 -6 -8 -31 -10 -78 -6 -62 5 -73 3 -114 -21 -25 -15 -53 -40 -62
-57 -17 -34 -82 -67 -178 -92 -47 -13 -57 -13 -67 -1 -13 15 -12 16 61 35 75
19 139 57 208 125 63 62 67 64 116 64 31 0 61 6 74 16 13 9 41 53 63 99 42 89
87 138 199 213 106 71 132 95 227 216 53 66 130 154 170 195 85 86 94 99 86
132 -6 24 -5 23 26 -5 26 -25 31 -37 31 -76z m81 -28 c17 -45 -62 -157 -181
-253 l-65 -53 45 49 c93 102 142 185 155 263 6 37 9 41 22 30 8 -7 19 -23 24
-36z m-573 -56 c-10 -57 -33 -94 -69 -115 -22 -12 -36 -10 -139 23 -83 26
-125 45 -150 68 -20 18 -29 33 -22 36 6 2 21 11 32 20 18 14 48 17 189 18
l168 0 -9 -50z m-410 -32 c20 -6 22 -11 16 -43 -8 -42 -18 -51 -61 -51 -33 0
-33 0 -33 50 0 48 1 50 28 50 15 0 37 -3 50 -6z m138 -115 c38 -11 75 -22 82
-24 7 -3 -10 -25 -43 -55 l-55 -50 -59 30 c-74 37 -117 90 -73 90 10 0 27 7
38 15 25 19 30 19 110 -6z m-195 -45 c14 -13 15 -20 5 -47 -19 -55 -46 -64
-46 -14 0 36 10 77 18 77 3 0 13 -7 23 -16z m78 -118 c45 -24 52 -37 39 -79
-6 -20 -14 -37 -18 -37 -4 0 -25 13 -47 29 -80 58 -58 130 26 87z m-110 -34
c7 -12 4 -24 -10 -41 -25 -30 -32 -23 -24 23 8 39 19 46 34 18z m64 -127 l38
-28 -23 -24 c-13 -14 -36 -32 -52 -40 -27 -14 -30 -14 -53 10 -21 20 -23 28
-14 45 6 11 11 32 11 46 0 15 7 26 18 28 19 5 19 4 75 -37z m454 -26 c-17 -24
-219 -200 -224 -195 -10 10 42 117 69 143 33 31 116 71 151 72 16 1 17 -1 4
-20z m-607 -89 c0 -5 -9 -10 -21 -10 -11 0 -17 5 -14 10 3 6 13 10 21 10 8 0
14 -4 14 -10z m258 -212 c-7 -21 -122 -94 -182 -117 -92 -34 -117 -35 -55 -2
36 19 64 43 78 66 11 20 36 42 53 50 42 18 111 20 106 3z"/>
</g>
</svg>
