<?xml version="1.0" standalone="no"?>
<!DOCTYPE svg PUBLIC "-//W3C//DTD SVG 20010904//EN"
 "http://www.w3.org/TR/2001/REC-SVG-20010904/DTD/svg10.dtd">
<svg version="1.0" xmlns="http://www.w3.org/2000/svg"
 width="262.000000pt" height="263.000000pt" viewBox="0 0 262.000000 263.000000"
 preserveAspectRatio="xMidYMid meet">

<g transform="translate(0.000000,263.000000) scale(0.100000,-0.100000)"
fill="#715696" stroke="none">
<path d="M657 1998 c-23 -24 -64 -83 -92 -132 -27 -49 -60 -98 -73 -110 -13
-11 -34 -42 -47 -68 -14 -26 -38 -68 -55 -94 -16 -26 -43 -81 -61 -123 -17
-42 -46 -107 -66 -145 -21 -41 -37 -89 -40 -121 -6 -60 -7 -59 124 -133 109
-61 213 -106 748 -322 550 -222 600 -237 783 -228 123 6 186 31 207 81 19 45
14 171 -8 213 -20 39 -45 55 -145 94 -83 32 -186 92 -236 139 -15 14 -64 74
-108 134 -44 59 -92 114 -107 121 -14 8 -48 46 -75 86 -55 80 -59 103 -37 240
24 151 25 233 4 281 -27 60 -59 69 -244 69 -119 0 -163 5 -254 26 -184 42
-169 43 -218 -8z m185 -44 c88 -22 128 -26 277 -28 167 -2 174 -3 192 -24 27
-35 33 -100 15 -171 -9 -35 -16 -82 -16 -105 l0 -42 -75 -34 c-59 -27 -73 -38
-66 -49 8 -12 17 -11 62 7 59 25 69 20 69 -35 0 -52 -28 -60 -98 -26 -51 25
-57 31 -56 58 1 17 10 48 20 70 18 37 22 40 65 43 39 2 48 7 53 25 9 35 7 47
-8 47 -7 0 -19 7 -26 15 -11 13 -7 15 24 15 29 0 37 4 42 23 11 48 0 99 -26
119 -41 30 -177 41 -423 33 l-218 -6 12 23 c17 33 50 68 65 68 7 0 59 -12 116
-26z m391 -105 c65 -18 77 -80 18 -92 -35 -7 -52 -47 -32 -79 15 -24 16 -24
-163 -38 -151 -11 -188 -21 -233 -62 -15 -14 -30 -19 -46 -14 -30 7 -126 72
-186 124 l-44 38 41 61 c31 46 49 63 69 66 63 9 540 6 576 -4z m-644 -207
c133 -111 219 -142 397 -142 111 0 112 0 118 -25 5 -18 25 -34 79 -61 79 -40
82 -44 128 -124 17 -30 47 -74 65 -97 19 -23 34 -50 34 -61 0 -33 -67 -155
-104 -191 -35 -34 -37 -35 -74 -21 -68 24 -456 210 -463 221 -3 6 -10 57 -14
112 -4 55 -11 111 -16 124 -5 13 -6 23 -3 23 4 0 34 -26 68 -57 271 -251 441
-305 441 -139 0 41 -7 62 -34 104 -34 54 -50 56 -51 7 0 -57 -59 -82 -119 -50
-47 24 -526 405 -529 421 -5 23 4 17 77 -44z m9 -155 c81 -81 105 -112 112
-143 11 -46 13 -174 3 -174 -13 0 -313 164 -338 185 l-25 20 29 70 c43 106 82
165 100 155 9 -5 62 -55 119 -113z m529 91 c-13 -33 -15 -33 -100 -42 -89 -9
-177 -2 -177 14 0 28 114 56 238 59 l52 1 -13 -32z m223 -208 c21 -30 20 -50
-3 -50 -7 0 -22 18 -35 40 -22 39 -22 40 -3 40 11 0 29 -13 41 -30z m-858
-125 c305 -170 689 -351 953 -450 140 -53 347 -103 481 -117 127 -14 153 -34
38 -31 -148 5 -396 75 -694 196 -264 107 -940 450 -940 477 0 6 2 10 4 10 2 0
73 -38 158 -85z m913 16 c-8 -26 -21 -27 -35 -2 -8 16 -6 22 7 30 23 13 37 -1
28 -28z m-947 -63 c320 -177 682 -349 944 -447 218 -81 362 -117 578 -144 25
-3 25 -3 -5 -17 -42 -19 -213 -17 -304 3 -120 27 -1112 428 -1281 519 -108 57
-120 71 -108 116 11 40 16 52 24 52 3 0 71 -37 152 -82z m1026 30 c21 -30 20
-33 -11 -47 -21 -10 -29 -9 -40 2 -11 11 -12 19 -2 40 15 33 33 34 53 5z m70
-94 c15 -22 16 -28 5 -35 -22 -14 -34 -11 -59 17 -21 21 -22 27 -10 34 25 16
44 11 64 -16z m-27 -106 l72 -72 -37 -35 c-21 -20 -49 -51 -62 -68 l-25 -32
-74 29 c-40 16 -76 31 -79 34 -3 3 9 23 26 45 17 21 46 68 64 105 18 36 35 66
37 66 3 0 38 -32 78 -72z m97 8 c26 -35 33 -56 18 -56 -14 0 -83 76 -76 83 15
14 32 6 58 -27z m123 -97 c25 -17 78 -46 119 -63 41 -18 77 -36 82 -41 9 -10
-49 2 -113 23 -28 9 -78 15 -114 15 -36 -1 -68 0 -73 3 -9 6 32 94 45 94 4 0
29 -14 54 -31z m-137 -58 c0 -39 28 -53 89 -46 42 5 75 1 131 -14 41 -12 100
-21 130 -21 65 0 80 -11 80 -57 l0 -33 -62 0 c-35 1 -97 7 -138 14 -109 20
-320 77 -320 87 0 12 70 89 81 89 5 0 9 -9 9 -19z"/>
<path d="M823 1784 c-32 -17 -49 -32 -46 -40 3 -8 -8 -15 -33 -20 l-39 -7 40
-14 c22 -8 65 -16 96 -20 48 -5 65 -2 110 20 30 14 64 34 77 44 l23 19 -35 -4
c-27 -3 -36 0 -36 11 0 9 -14 17 -39 21 -22 3 -45 8 -53 11 -7 3 -36 -7 -65
-21z"/>
</g>
</svg>
