<?xml version="1.0" standalone="no"?>
<!DOCTYPE svg PUBLIC "-//W3C//DTD SVG 20010904//EN"
 "http://www.w3.org/TR/2001/REC-SVG-20010904/DTD/svg10.dtd">
<svg version="1.0" xmlns="http://www.w3.org/2000/svg"
 width="353.000000pt" height="302.000000pt" viewBox="0 0 353.000000 302.000000"
 preserveAspectRatio="xMidYMid meet">

<g transform="translate(0.000000,302.000000) scale(0.100000,-0.100000)"
fill="#715696" stroke="none">
<path d="M2705 2729 c-55 -44 -133 -96 -174 -117 -63 -31 -82 -36 -136 -34
-55 1 -65 -2 -86 -24 -23 -25 -24 -31 -30 -252 -7 -235 -21 -350 -60 -465 -24
-72 -35 -91 -146 -250 -61 -88 -84 -130 -89 -163 -9 -62 3 -124 31 -159 22
-26 31 -30 92 -33 83 -5 172 16 268 64 80 39 480 368 505 415 19 36 138 136
226 189 137 84 251 189 308 284 39 65 44 92 22 135 -16 29 -125 130 -186 171
-19 13 -57 45 -85 71 -30 29 -80 62 -125 83 -50 23 -99 56 -147 100 -39 36
-75 66 -80 65 -4 0 -53 -37 -108 -80z m156 -25 c18 -20 55 -51 81 -68 52 -36
52 -46 2 -46 -36 0 -54 16 -27 23 11 3 8 5 -9 6 -18 1 -28 7 -28 16 0 18 -17
20 -22 3 -3 -9 -12 -8 -31 5 -30 19 -37 21 -37 8 0 -5 11 -12 24 -15 13 -3 38
-19 56 -36 30 -28 32 -34 27 -75 -4 -25 -3 -45 2 -45 5 0 11 19 14 41 3 23 9
45 14 50 14 14 117 21 133 9 13 -10 13 -12 1 -17 -42 -17 -82 -76 -137 -201
-32 -73 -62 -136 -67 -139 -6 -3 -6 14 -2 44 8 64 -10 167 -40 218 -13 22 -48
64 -79 93 -31 29 -56 55 -56 57 0 6 132 105 140 105 3 0 22 -16 41 -36z m-226
-120 c-83 -64 -225 -133 -225 -110 0 22 22 39 78 60 37 15 81 35 97 45 17 11
39 20 50 20 l20 0 -20 -15z m134 -90 c29 -44 57 -111 49 -119 -9 -9 -170 -25
-253 -25 -92 0 -93 0 -99 -26 -8 -31 -21 -23 -31 18 -6 23 -3 29 19 39 14 7
26 16 26 20 0 9 230 139 247 139 6 0 25 -21 42 -46z m394 -2 c32 -33 50 -60
53 -83 6 -33 1 -40 -84 -126 -49 -51 -122 -135 -161 -187 -73 -97 -122 -143
-226 -213 -110 -74 -150 -117 -199 -213 -49 -93 -69 -113 -114 -109 -55 4 -69
-3 -144 -75 -79 -76 -148 -113 -221 -119 -31 -2 -32 -1 -31 36 1 29 15 59 59
123 l57 84 55 0 c78 0 131 16 186 56 49 35 59 53 123 203 24 58 108 137 205
195 129 77 164 120 232 278 63 147 99 193 152 197 6 1 32 -21 58 -47z m-800
-24 c-3 -46 1 -80 16 -128 11 -35 19 -65 18 -66 -1 -1 -17 -5 -34 -9 l-33 -7
0 117 c0 108 9 155 29 155 5 0 7 -28 4 -62z m947 -148 c0 -107 -82 -211 -317
-403 -98 -80 -147 -113 -189 -127 -132 -46 -179 -92 -221 -216 -14 -44 -30
-84 -35 -91 -6 -8 -31 -10 -78 -6 -62 5 -73 3 -114 -21 -25 -15 -53 -40 -62
-57 -17 -34 -82 -67 -178 -92 -47 -13 -57 -13 -67 -1 -13 15 -12 16 61 35 75
19 139 57 208 125 63 62 67 64 116 64 31 0 61 6 74 16 13 9 41 53 63 99 42 89
87 138 199 213 106 71 132 95 227 216 53 66 130 154 170 195 85 86 94 99 86
132 -6 24 -5 23 26 -5 26 -25 31 -37 31 -76z m81 -28 c17 -45 -62 -157 -181
-253 l-65 -53 45 49 c93 102 142 185 155 263 6 37 9 41 22 30 8 -7 19 -23 24
-36z m-573 -56 c-10 -57 -33 -94 -69 -115 -22 -12 -36 -10 -139 23 -83 26
-125 45 -150 68 -20 18 -29 33 -22 36 6 2 21 11 32 20 18 14 48 17 189 18
l168 0 -9 -50z m-410 -32 c20 -6 22 -11 16 -43 -8 -42 -18 -51 -61 -51 -33 0
-33 0 -33 50 0 48 1 50 28 50 15 0 37 -3 50 -6z m138 -115 c38 -11 75 -22 82
-24 7 -3 -10 -25 -43 -55 l-55 -50 -59 30 c-74 37 -117 90 -73 90 10 0 27 7
38 15 25 19 30 19 110 -6z m-195 -45 c14 -13 15 -20 5 -47 -19 -55 -46 -64
-46 -14 0 36 10 77 18 77 3 0 13 -7 23 -16z m78 -118 c45 -24 52 -37 39 -79
-6 -20 -14 -37 -18 -37 -4 0 -25 13 -47 29 -80 58 -58 130 26 87z m-110 -34
c7 -12 4 -24 -10 -41 -25 -30 -32 -23 -24 23 8 39 19 46 34 18z m64 -127 l38
-28 -23 -24 c-13 -14 -36 -32 -52 -40 -27 -14 -30 -14 -53 10 -21 20 -23 28
-14 45 6 11 11 32 11 46 0 15 7 26 18 28 19 5 19 4 75 -37z m454 -26 c-17 -24
-219 -200 -224 -195 -10 10 42 117 69 143 33 31 116 71 151 72 16 1 17 -1 4
-20z m-607 -89 c0 -5 -9 -10 -21 -10 -11 0 -17 5 -14 10 3 6 13 10 21 10 8 0
14 -4 14 -10z m258 -212 c-7 -21 -122 -94 -182 -117 -92 -34 -117 -35 -55 -2
36 19 64 43 78 66 11 20 36 42 53 50 42 18 111 20 106 3z"/>
<path d="M657 1998 c-23 -24 -64 -83 -92 -132 -27 -49 -60 -98 -73 -110 -13
-11 -34 -42 -47 -68 -14 -26 -38 -68 -55 -94 -16 -26 -43 -81 -61 -123 -17
-42 -46 -107 -66 -145 -21 -41 -37 -89 -40 -121 -6 -60 -7 -59 124 -133 109
-61 213 -106 748 -322 550 -222 600 -237 783 -228 123 6 186 31 207 81 19 45
14 171 -8 213 -20 39 -45 55 -145 94 -83 32 -186 92 -236 139 -15 14 -64 74
-108 134 -44 59 -92 114 -107 121 -14 8 -48 46 -75 86 -55 80 -59 103 -37 240
24 151 25 233 4 281 -27 60 -59 69 -244 69 -119 0 -163 5 -254 26 -184 42
-169 43 -218 -8z m185 -44 c88 -22 128 -26 277 -28 167 -2 174 -3 192 -24 27
-35 33 -100 15 -171 -9 -35 -16 -82 -16 -105 l0 -42 -75 -34 c-59 -27 -73 -38
-66 -49 8 -12 17 -11 62 7 59 25 69 20 69 -35 0 -52 -28 -60 -98 -26 -51 25
-57 31 -56 58 1 17 10 48 20 70 18 37 22 40 65 43 39 2 48 7 53 25 9 35 7 47
-8 47 -7 0 -19 7 -26 15 -11 13 -7 15 24 15 29 0 37 4 42 23 11 48 0 99 -26
119 -41 30 -177 41 -423 33 l-218 -6 12 23 c17 33 50 68 65 68 7 0 59 -12 116
-26z m391 -105 c65 -18 77 -80 18 -92 -35 -7 -52 -47 -32 -79 15 -24 16 -24
-163 -38 -151 -11 -188 -21 -233 -62 -15 -14 -30 -19 -46 -14 -30 7 -126 72
-186 124 l-44 38 41 61 c31 46 49 63 69 66 63 9 540 6 576 -4z m-644 -207
c133 -111 219 -142 397 -142 111 0 112 0 118 -25 5 -18 25 -34 79 -61 79 -40
82 -44 128 -124 17 -30 47 -74 65 -97 19 -23 34 -50 34 -61 0 -33 -67 -155
-104 -191 -35 -34 -37 -35 -74 -21 -68 24 -456 210 -463 221 -3 6 -10 57 -14
112 -4 55 -11 111 -16 124 -5 13 -6 23 -3 23 4 0 34 -26 68 -57 271 -251 441
-305 441 -139 0 41 -7 62 -34 104 -34 54 -50 56 -51 7 0 -57 -59 -82 -119 -50
-47 24 -526 405 -529 421 -5 23 4 17 77 -44z m9 -155 c81 -81 105 -112 112
-143 11 -46 13 -174 3 -174 -13 0 -313 164 -338 185 l-25 20 29 70 c43 106 82
165 100 155 9 -5 62 -55 119 -113z m529 91 c-13 -33 -15 -33 -100 -42 -89 -9
-177 -2 -177 14 0 28 114 56 238 59 l52 1 -13 -32z m223 -208 c21 -30 20 -50
-3 -50 -7 0 -22 18 -35 40 -22 39 -22 40 -3 40 11 0 29 -13 41 -30z m-858
-125 c305 -170 689 -351 953 -450 140 -53 347 -103 481 -117 127 -14 153 -34
38 -31 -148 5 -396 75 -694 196 -264 107 -940 450 -940 477 0 6 2 10 4 10 2 0
73 -38 158 -85z m913 16 c-8 -26 -21 -27 -35 -2 -8 16 -6 22 7 30 23 13 37 -1
28 -28z m-947 -63 c320 -177 682 -349 944 -447 218 -81 362 -117 578 -144 25
-3 25 -3 -5 -17 -42 -19 -213 -17 -304 3 -120 27 -1112 428 -1281 519 -108 57
-120 71 -108 116 11 40 16 52 24 52 3 0 71 -37 152 -82z m1026 30 c21 -30 20
-33 -11 -47 -21 -10 -29 -9 -40 2 -11 11 -12 19 -2 40 15 33 33 34 53 5z m70
-94 c15 -22 16 -28 5 -35 -22 -14 -34 -11 -59 17 -21 21 -22 27 -10 34 25 16
44 11 64 -16z m-27 -106 l72 -72 -37 -35 c-21 -20 -49 -51 -62 -68 l-25 -32
-74 29 c-40 16 -76 31 -79 34 -3 3 9 23 26 45 17 21 46 68 64 105 18 36 35 66
37 66 3 0 38 -32 78 -72z m97 8 c26 -35 33 -56 18 -56 -14 0 -83 76 -76 83 15
14 32 6 58 -27z m123 -97 c25 -17 78 -46 119 -63 41 -18 77 -36 82 -41 9 -10
-49 2 -113 23 -28 9 -78 15 -114 15 -36 -1 -68 0 -73 3 -9 6 32 94 45 94 4 0
29 -14 54 -31z m-137 -58 c0 -39 28 -53 89 -46 42 5 75 1 131 -14 41 -12 100
-21 130 -21 65 0 80 -11 80 -57 l0 -33 -62 0 c-35 1 -97 7 -138 14 -109 20
-320 77 -320 87 0 12 70 89 81 89 5 0 9 -9 9 -19z"/>
<path d="M823 1784 c-32 -17 -49 -32 -46 -40 3 -8 -8 -15 -33 -20 l-39 -7 40
-14 c22 -8 65 -16 96 -20 48 -5 65 -2 110 20 30 14 64 34 77 44 l23 19 -35 -4
c-27 -3 -36 0 -36 11 0 9 -14 17 -39 21 -22 3 -45 8 -53 11 -7 3 -36 -7 -65
-21z"/>
</g>
</svg>
